<?xml version="1.0" encoding="UTF-8" standalone="no"?>
<svg
   xmlns:dc="http://purl.org/dc/elements/1.1/"
   xmlns:cc="http://creativecommons.org/ns#"
   xmlns:rdf="http://www.w3.org/1999/02/22-rdf-syntax-ns#"
   xmlns:svg="http://www.w3.org/2000/svg"
   xmlns="http://www.w3.org/2000/svg"
   xmlns:sodipodi="http://sodipodi.sourceforge.net/DTD/sodipodi-0.dtd"
   xmlns:inkscape="http://www.inkscape.org/namespaces/inkscape"
   version="1.1"
   x="0px"
   y="0px"
   viewBox="0 0 50 50"
   style="enable-background:new 0 0 50 50;"
   xml:space="preserve"
   id="svg838"
   sodipodi:docname="circle.svg"
   inkscape:version="1.0.1 (c497b03c, 2020-09-10)"><metadata
   id="metadata844"><rdf:RDF><cc:Work
       rdf:about=""><dc:format>image/svg+xml</dc:format><dc:type
         rdf:resource="http://purl.org/dc/dcmitype/StillImage" /></cc:Work></rdf:RDF></metadata><defs
   id="defs842" /><sodipodi:namedview
   pagecolor="#ffffff"
   bordercolor="#666666"
   borderopacity="1"
   objecttolerance="10"
   gridtolerance="10"
   guidetolerance="10"
   inkscape:pageopacity="0"
   inkscape:pageshadow="2"
   inkscape:window-width="1305"
   inkscape:window-height="962"
   id="namedview840"
   showgrid="false"
   inkscape:zoom="13.36"
   inkscape:cx="25"
   inkscape:cy="25"
   inkscape:window-x="0"
   inkscape:window-y="25"
   inkscape:window-maximized="0"
   inkscape:current-layer="svg838" />
<g
   id="Layer_1">
	<path
   d="M25,1C11.767,1,1,11.767,1,25s10.767,24,24,24s24-10.767,24-24S38.233,1,25,1z M25,47C12.869,47,3,37.131,3,25   S12.869,3,25,3s22,9.869,22,22S37.131,47,25,47z"
   id="path833" />
</g>
<g
   id="g836">
</g>
<path
   style="fill:#ffffff;stroke-width:0.0748503"
   d="M 23.203593,48.904615 C 19.835342,48.591917 17.069678,47.806891 14.187365,46.345385 11.914001,45.192653 9.8916243,43.725491 8.0830665,41.916933 4.3158048,38.149672 1.982246,33.414514 1.2216357,27.994012 c -0.185163,-1.319568 -0.185163,-4.668456 0,-5.988024 C 1.7679007,18.113021 3.0406682,14.755401 5.1655028,11.601883 8.5630636,6.5594817 13.852583,2.952582 19.817735,1.610591 21.706615,1.1856463 22.627975,1.0937581 25,1.0937581 c 2.372025,0 3.293385,0.091888 5.182265,0.5168329 4.484344,1.0088508 8.516046,3.237591 11.771328,6.5072345 3.762027,3.7786235 6.063321,8.4616745 6.824772,13.8881625 0.185162,1.319568 0.185162,4.668456 0,5.988024 -0.40867,2.91239 -1.144895,5.278323 -2.43298,7.818623 -1.151524,2.270984 -2.614489,4.287914 -4.428864,6.105895 -3.727369,3.734776 -8.524868,6.107282 -13.847659,6.848077 -0.830382,0.115568 -4.106102,0.208487 -4.865269,0.138008 z m 5.127245,-2.115671 C 30.578562,46.427392 32.54,45.81286 34.543413,44.8425 c 3.275432,-1.586465 5.91788,-3.75462 8.082078,-6.631422 2.395604,-3.184404 3.909572,-7.064633 4.303488,-11.029637 0.09904,-0.996898 0.09904,-3.365984 0,-4.362882 C 46.181704,15.296777 41.591362,8.6537073 34.805389,5.2734905 32.692698,4.2211204 30.587503,3.5593011 28.143713,3.1792302 c -1.071865,-0.1667018 -3.98074,-0.23105 -5.21191,-0.1152943 -2.741816,0.2577878 -5.228888,0.9718698 -7.733371,2.220386 -1.424121,0.7099419 -2.24782,1.2145495 -3.40951,2.0887018 -4.8703599,3.6648673 -7.9736523,9.0709093 -8.681699,15.1238173 -0.1308196,1.118342 -0.1495612,3.543567 -0.036202,4.6846 0.6081371,6.121271 3.7649798,11.713489 8.717901,15.443406 2.870199,2.161474 6.378505,3.634907 9.88024,4.149545 1.497818,0.22013 1.448764,0.217546 3.667664,0.193223 1.609143,-0.01764 2.21924,-0.05405 2.994012,-0.178671 z"
   id="path852" /></svg>
