<?xml version="1.0" ?><svg id="Layer_1" style="enable-background:new 0 0 68 68;" version="1.1" viewBox="0 0 68 68" xml:space="preserve" xmlns="http://www.w3.org/2000/svg" xmlns:xlink="http://www.w3.org/1999/xlink"><g><path d="M61.7573624,8.3856754L44.7004776,5.1129699c-0.9204102-1.5847166-2.6171875-2.6650388-4.578125-2.6650388h-32.875   c-2.9291992,0-5.3125,2.3833005-5.3125,5.3125v50.125c0,2.9291992,2.3833008,5.3125,5.3125,5.3125h31.8369122l11.7231445,2.2478027   c2.7313652,0.5777893,5.6565895-1.2516098,6.2099609-4.2102051l8.9499512-46.6298828   C66.522995,11.7453995,64.6566544,8.9489317,61.7573624,8.3856754z M43.4348526,57.8854294   c0,1.826416-1.4858398,3.3125-3.3125,3.3125h-32.875c-1.8266602,0-3.3125-1.486084-3.3125-3.3125v-50.125   c0-1.826416,1.4858398-3.3125,3.3125-3.3125h32.875c1.8266602,0,3.3125,1.486084,3.3125,3.3125V57.8854294z M64.0073624,14.2255192   l-8.9499512,46.630127c-0.3567314,1.8262138-2.0912476,2.970974-3.8798828,2.6298828l-7.7358398-1.486084   c0.7954102-0.6430664,1.3942871-1.5029297,1.7148438-2.4980469l2.6308594,0.5041504   c0.5803261,0.0967216,1.0687065-0.2618866,1.1699219-0.7897949c0.2896461-1.5299721,1.7617378-2.531044,3.3000488-2.2402344   c0.5253983,0.1011353,1.061676-0.2286224,1.170166-0.7900391l7.329834-38.2197266   c0.1101074-0.5400391-0.25-1.0700684-0.7900391-1.170166c-1.4929771-0.2822437-2.5358734-1.7349129-2.2399902-3.3000488   c0.1075668-0.5588064-0.2553215-1.0669956-0.7900391-1.1699219l-11.5024414-2.2084961V7.7604308   c0-0.1645508-0.0339355-0.3198242-0.048584-0.4807129l15.9909668,3.0759282   C63.1633453,10.6839008,64.357872,12.4337587,64.0073624,14.2255192z M45.4348526,41.1874313V25.5277653l7.3125,1.4077148   c1.8566284,0.3673191,2.5737305,2.5838223,1.3999023,3.9602051L45.4348526,41.1874313z"/><path d="M39.7395401,11.4479313c-1.6542969,0-3-1.3457031-3-3c0-0.5522466-0.4477539-1.0000005-1-1.0000005H11.6296778   c-0.5522461,0-1,0.4477539-1,1.0000005c0,1.6542969-1.3457031,3-2.9999995,3c-0.5522461,0-1,0.4477539-1,1v40.75   c0,0.5522461,0.4477539,1,1,1c1.6542964,0,2.9999995,1.3457031,2.9999995,3c0,0.5522461,0.4477539,1,1,1h24.1098633   c0.5522461,0,1-0.4477539,1-1c0-1.6542969,1.3457031-3,3-3c0.5522461,0,1-0.4477539,1-1v-40.75   C40.7395401,11.8956852,40.2917862,11.4479313,39.7395401,11.4479313z M36.4973526,27.025568L25.8574619,45.9257126   c-0.9369736,1.7024536-3.3816338,1.7102318-4.3500977,0.0097656L10.8772364,27.025568   c-0.8992739-1.5547466,0.1657734-3.7199707,2.1801758-3.7199707H34.317421   C36.273613,23.3055973,37.4188843,25.4341106,36.4973526,27.025568z"/><path d="M23.6848545,28.3627262c-2.4731445,0-4.4780273,2.0048828-4.4780273,4.4782696   c0,2.4731445,2.0048828,4.4780273,4.4780273,4.4780273s4.4780273-2.0048828,4.4780273-4.4780273   C28.1628819,30.367609,26.157999,28.3627262,23.6848545,28.3627262z"/></g></svg>