<?xml version="1.0" encoding="utf-8"?>
<!-- Svg Vector Icons : http://www.onlinewebfonts.com/icon -->
<!DOCTYPE svg PUBLIC "-//W3C//DTD SVG 1.1//EN" "http://www.w3.org/Graphics/SVG/1.1/DTD/svg11.dtd">
<svg version="1.1" xmlns="http://www.w3.org/2000/svg" xmlns:xlink="http://www.w3.org/1999/xlink" x="0px" y="0px" viewBox="0 0 1000 1000" enable-background="new 0 0 1000 1000" xml:space="preserve">
<metadata> Svg Vector Icons : http://www.onlinewebfonts.com/icon </metadata>
<g><path d="M825.6,129C614.4,129,522,32.8,522,32.8L500,10l-22,22.8c0,0-92.4,98.5-305.7,98.5h-52.8v441.9c0,114.5,37.4,283.9,369.5,412.2l11,4.6l11-4.6c332.1-128.2,369.5-297.7,369.5-412.2V129H825.6z M500,935.1c-336.6-130.5-336.6-300-336.6-366.4V177.2h11c191.3,0,292.6-73.3,325.6-103.1c33,29.8,134.2,103.1,325.6,103.1h8.8l2.2,391.5C836.6,632.8,836.6,804.6,500,935.1z M436.2,557.3l-116.6-91.6l-44,36.6L467,683.2C555,484,724.3,332.8,724.3,332.8l-19.8-22.9C568.2,383.2,436.2,557.3,436.2,557.3z"/></g>
</svg>